PathFileType	4	(X/Y/Z)	s11c0103.trc
DataRate	CameraRate	NumFrames	NumMarkers	Units	OrigDataRate	OrigDataStartFrame	OrigNumFrames
200	200	6	48	mm	200	1750	2000
Frame#	Time	racr			lacr			c7			jug			rlel			rdr			llel			ldr			s2			lic			ric			lasi			rasi			rpsi			lpsi			rgt			lgt			rth1			rth2			rth3			rth4			rlfc			rmfc			rsh1			rsh2			rsh3			rsh4			rlmal			rcal			rtoe			rmt5			lth1			lth2			lth4			lth3			llfc			lmfc			llmal			lcal			lmt5			lsh1			lsh2			lsh3			lsh4			ltoe			SBIKE			LBIKE			RBIKE			
		X1	Y1	Z1	X2	Y2	Z2	X3	Y3	Z3	X4	Y4	Z4	X5	Y5	Z5	X6	Y6	Z6	X7	Y7	Z7	X8	Y8	Z8	X9	Y9	Z9	X10	Y10	Z10	X11	Y11	Z11	X12	Y12	Z12	X13	Y13	Z13	X14	Y14	Z14	X15	Y15	Z15	X16	Y16	Z16	X17	Y17	Z17	X18	Y18	Z18	X19	Y19	Z19	X20	Y20	Z20	X21	Y21	Z21	X22	Y22	Z22	X23	Y23	Z23	X24	Y24	Z24	X25	Y25	Z25	X26	Y26	Z26	X27	Y27	Z27	X28	Y28	Z28	X29	Y29	Z29	X30	Y30	Z30	X31	Y31	Z31	X32	Y32	Z32	X33	Y33	Z33	X34	Y34	Z34	X35	Y35	Z35	X36	Y36	Z36	X37	Y37	Z37	X38	Y38	Z38	X39	Y39	Z39	X40	Y40	Z40	X41	Y41	Z41	X42	Y42	Z42	X43	Y43	Z43	X44	Y44	Z44	X45	Y45	Z45	X46	Y46	Z46	X47	Y47	Z47	X48	Y48	Z48	
1750	8.7500	550.221500	1387.652800	-211.163093	475.535326	1398.833182	-450.255558	450.647428	1461.908199	-318.102984	468.062550	1272.157532	-325.006700	683.004071	1197.908005	-44.637056	797.953439	927.220787	-84.170777	530.230093	1132.858843	-572.787537	771.599311	925.539774	-471.607279	-98.210571	1198.076096	-214.601994	70.589597	1258.113062	-443.889464	154.429041	1193.078457	-53.020807	111.178350	1193.171251	-402.060230	178.192604	1138.345358	-91.967052	-51.102930	1270.702164	-149.811465	-72.633890	1276.155951	-241.427403	72.640175	1036.182504	-28.782036	19.927240	1150.684029	-461.935763	148.385339	918.453327	-26.431755	214.014247	859.020461	-41.390781	239.944198	778.005778	-63.280049	243.806869	880.705230	-49.490508	293.536852	691.326310	-86.297200	293.012557	676.675022	-211.726984	232.874991	548.147747	-69.584658	217.285967	463.145477	-87.869501	163.221253	394.648836	-88.006163	239.783463	456.355820	-119.836379	100.792392	268.326806	-100.396118	34.811041	265.541708	-146.743101	303.228541	163.980059	-148.311717	230.449574	153.774755	-77.737828	161.555870	1112.433395	-486.889148	247.148763	1112.281283	-488.468821	258.758528	1145.086455	-473.666460	324.440716	1068.213526	-501.321056	453.579663	1019.987738	-493.462114	482.255199	1013.467239	-361.942342	255.635809	644.766745	-430.560680	196.854511	639.096289	-388.527565	331.070831	480.686468	-453.181224	398.858184	915.405492	-494.430445	384.724467	831.992071	-478.778739	329.355410	764.344628	-464.433059	417.921791	822.183500	-462.221328	423.285781	444.627229	-388.743271	-215.623479	951.605412	-256.145526	-17.996766	81.244034	-460.798663	-17.966477	81.172072	-62.060439	
1751	8.7550	552.021150	1384.205117	-212.788105	476.585484	1395.941581	-451.180627	452.461925	1459.524876	-319.582801	468.149106	1269.534941	-325.803755	684.537187	1196.680121	-44.254148	797.955855	927.039316	-83.883203	529.211674	1130.031482	-574.286466	771.565777	925.310054	-472.219705	-98.001617	1199.332041	-213.790031	70.379401	1259.195547	-444.036221	155.728976	1192.884767	-53.079404	110.187755	1193.311179	-401.913192	178.949775	1137.475040	-92.160453	-50.350198	1271.864138	-149.232669	-72.219572	1277.580851	-240.955280	73.837775	1037.006266	-28.670363	18.848870	1150.802267	-460.921508	150.380780	919.779777	-26.764850	216.618338	861.130813	-40.739454	243.035866	780.166962	-63.368276	246.174496	882.840887	-49.085992	297.721102	693.970568	-86.442549	297.703424	679.494159	-213.050765	233.687168	551.582191	-69.654436	216.232757	466.869658	-87.887132	160.709262	399.498720	-88.005959	238.713666	459.554609	-119.699949	95.437624	275.078325	-100.089490	29.497969	274.353263	-146.554430	294.729957	164.361008	-148.170973	221.486502	156.364669	-77.700897	160.026100	1111.588176	-485.793687	245.662529	1111.008799	-487.858356	257.478491	1143.824060	-473.342263	322.604659	1066.514950	-500.797962	452.383025	1017.151638	-492.908198	480.102137	1010.510854	-361.366840	258.307976	638.597719	-431.114352	198.966418	630.828893	-390.018565	340.094625	477.972341	-453.656786	399.076470	911.141493	-494.385430	385.829605	827.484312	-479.174949	331.167977	759.140686	-465.382060	419.085408	818.055765	-462.338211	433.728667	446.575980	-388.900262	-215.669631	951.549932	-255.991266	-17.970427	81.261907	-460.812193	-17.952104	81.153876	-62.034468	
1752	8.7600	553.603640	1380.831449	-214.298764	477.544040	1393.169794	-452.122314	454.177235	1457.242078	-320.976651	468.054643	1267.027489	-326.593530	685.848986	1195.319133	-43.644699	797.840010	926.900574	-83.560474	528.111127	1126.936123	-575.663302	772.402144	926.059170	-473.872679	-97.856032	1200.649098	-212.921936	69.798896	1259.861648	-443.703973	156.505620	1192.620005	-53.282630	109.542854	1193.351106	-402.595782	179.541192	1136.802907	-92.267083	-49.685641	1273.098402	-148.647039	-71.768783	1278.979644	-240.512636	75.108302	1038.051331	-28.458679	17.406482	1150.509457	-459.814639	152.564311	921.344624	-27.237029	219.212434	863.043242	-41.283811	246.500476	782.415949	-63.601301	248.763113	884.941598	-49.050984	302.794589	696.651419	-86.698471	303.059836	682.192901	-213.013364	235.059578	555.110828	-69.822559	215.637608	470.991271	-88.006780	158.626536	404.892917	-88.091306	237.942200	463.079372	-119.833305	90.690712	282.408955	-99.643263	24.666719	283.560992	-146.401434	285.903556	164.566513	-148.231141	212.549686	159.516770	-78.069000	158.126989	1110.020048	-484.769156	243.852702	1108.984816	-487.223495	255.891402	1141.783843	-473.015156	320.277748	1063.914648	-500.649821	451.088319	1012.646355	-492.369391	477.929954	1006.192907	-360.891405	260.489094	631.080814	-431.781998	200.132579	621.082481	-391.804053	348.784121	474.668330	-454.452193	398.819736	905.769824	-494.666668	386.471571	821.826416	-479.774079	332.480861	752.827880	-466.375948	418.921716	811.728352	-461.504443	443.490062	448.316227	-388.639737	-215.598288	951.457942	-256.045406	-17.999214	81.245735	-460.760234	-17.959061	81.128239	-62.022423	
1753	8.7650	555.059638	1377.285809	-215.597034	478.405595	1390.636485	-453.179874	455.657862	1455.241699	-322.282383	467.588216	1264.815129	-327.369726	686.836659	1193.796585	-42.846757	797.642580	926.718762	-83.197283	526.950592	1123.706809	-576.983895	772.282711	925.710909	-474.282447	-97.635601	1201.946023	-212.085337	69.279783	1260.701813	-443.682177	157.393874	1192.565973	-52.995747	108.691336	1192.986836	-403.524229	179.967342	1136.315945	-92.445036	-45.985029	1273.302634	-150.529404	-71.237294	1280.231382	-239.990436	76.411253	1038.996975	-28.331528	15.729826	1149.962987	-458.775765	154.985985	922.696184	-28.008709	222.189661	865.039831	-41.710220	250.345076	784.681238	-63.901282	251.571417	887.236399	-49.324778	307.852162	699.400488	-87.096990	308.455356	684.992547	-213.126410	236.701412	559.000559	-70.159301	215.475229	475.232258	-88.249508	157.049642	410.327143	-88.248054	237.585711	466.727605	-120.070735	86.114996	290.047876	-99.410748	20.139564	293.344789	-146.354661	277.392108	165.637340	-148.146550	204.176632	163.243891	-77.676568	155.940648	1107.998537	-483.885606	241.669444	1106.182575	-486.742155	254.030764	1138.930033	-472.721075	317.676280	1060.402850	-500.397904	449.576153	1006.600422	-491.813842	475.802143	1000.543219	-360.522971	262.232463	622.458547	-432.659801	200.862750	609.511955	-393.371943	356.881949	470.494840	-455.325307	398.186130	899.142802	-495.097324	386.527954	815.068897	-480.634073	333.429276	745.502047	-467.343233	419.089107	805.329613	-462.137254	452.857601	449.880591	-388.407791	-215.574251	951.443787	-255.804019	-18.015848	81.267463	-460.738910	-17.945478	81.085732	-61.969938	
1754	8.7700	556.302707	1373.708940	-216.580657	479.186921	1388.257363	-454.371268	456.891764	1453.378277	-323.452672	466.932520	1262.768196	-328.174123	687.648855	1192.213116	-41.742722	797.406026	926.569439	-82.880345	525.652434	1120.329306	-578.234821	772.189542	925.444926	-474.434343	-97.299322	1203.122597	-211.211745	68.716570	1261.264017	-443.559812	157.849450	1192.677350	-52.947730	107.636221	1192.127761	-404.331164	180.195383	1135.925570	-92.649035	-48.304336	1275.445949	-148.026705	-70.742620	1281.457040	-239.456286	77.609008	1039.683778	-28.766947	13.654139	1148.917827	-457.540275	157.567615	924.255921	-28.801328	225.392389	867.132482	-42.327113	254.488368	786.958245	-64.235668	254.574276	889.552006	-49.806127	312.628798	701.982320	-87.546878	313.626864	688.118554	-213.768947	238.770605	562.964646	-70.543118	215.616978	479.803899	-88.553504	155.778755	416.200124	-88.480729	237.468695	470.807779	-120.471967	81.839913	298.085634	-99.134235	16.201901	303.274679	-146.220732	268.990829	167.246564	-148.094733	195.808855	167.427206	-77.549311	153.703292	1105.229812	-483.111047	239.366361	1102.513132	-486.402312	252.100996	1135.170564	-472.569243	314.859477	1055.913378	-500.012646	447.861841	999.420918	-491.316763	473.633133	993.707189	-360.377586	263.535901	612.625783	-433.961928	201.699472	596.984943	-394.923604	364.336297	465.566581	-456.397780	397.154867	891.601181	-495.815379	386.297830	807.371058	-481.634656	333.898842	737.184379	-468.485585	418.831206	797.976854	-462.867197	461.173681	451.024104	-388.881986	-215.536447	951.423350	-255.527232	-18.027808	81.280739	-460.685312	-17.924384	81.044253	-61.937097	
1755	8.7750	557.230608	1370.156454	-217.299209	479.875348	1386.307318	-455.734027	457.867689	1451.851773	-324.484890	465.956818	1261.082018	-329.139698	687.854837	1190.613702	-40.591226	797.110291	926.343441	-82.584857	524.179185	1116.984455	-579.434833	772.007491	925.288298	-474.403206	-96.901422	1204.189731	-210.253614	67.991699	1261.510192	-443.125768	158.478437	1192.917595	-52.396553	107.054460	1191.200214	-406.197532	180.281780	1135.765744	-92.796209	-44.369693	1275.553780	-150.173561	-70.139135	1282.508151	-238.884015	78.574497	1040.293268	-29.659966	11.484836	1147.733195	-456.358302	160.314092	925.571186	-29.670088	228.711695	869.400979	-43.148388	258.753336	789.390520	-64.845630	257.668565	891.965555	-50.652874	317.592506	704.670104	-87.895370	319.058461	691.006987	-213.990044	241.012901	567.181550	-71.027007	216.027564	484.563356	-89.008430	154.870034	422.270436	-88.729330	237.526637	475.082280	-121.021618	77.806776	306.469438	-99.027477	12.414083	313.807419	-146.187739	260.929072	169.721075	-148.019678	187.732210	172.323712	-77.658917	151.460853	1101.817083	-482.428425	237.054168	1098.024757	-486.051659	250.207080	1130.769934	-472.670594	311.929336	1050.496994	-499.636349	445.863571	991.127365	-490.863942	471.446524	985.619259	-360.337212	264.377809	601.821492	-435.752445	202.005322	583.116102	-396.038877	371.475513	460.005877	-457.290031	395.913615	883.070443	-497.162322	385.821804	798.551464	-482.546691	333.919695	727.857676	-469.696805	418.167992	789.294935	-463.185114	468.985403	451.522985	-389.547307	-215.477192	951.390812	-255.220445	-18.015940	81.305693	-460.640720	-17.907707	81.029738	-61.903835	
